<svg width="24" height="24" viewBox="0 0 24 24" fill="none" xmlns="http://www.w3.org/2000/svg">
<g opacity="0.98">
<path fill-rule="evenodd" clip-rule="evenodd" d="M17.3334 6.30588C17.3334 5.48215 16.9962 4.69215 16.3961 4.10969C15.796 3.52722 14.9821 3.2 14.1334 3.2H9.86669C9.018 3.2 8.20407 3.52722 7.60395 4.10969C7.00383 4.69215 6.66669 5.48215 6.66669 6.30588H5.60002C4.75133 6.30588 3.9374 6.63311 3.33728 7.21557C2.73717 7.79804 2.40002 8.58803 2.40002 9.41176V17.6941C2.40002 18.5178 2.73717 19.3078 3.33728 19.8903C3.9374 20.4728 4.75133 20.8 5.60002 20.8H18.4C19.2487 20.8 20.0627 20.4728 20.6628 19.8903C21.2629 19.3078 21.6 18.5178 21.6 17.6941V9.41176C21.6 8.58803 21.2629 7.79804 20.6628 7.21557C20.0627 6.63311 19.2487 6.30588 18.4 6.30588H17.3334ZM14.1334 5.27059H9.86669C9.58379 5.27059 9.31248 5.37966 9.11244 5.57382C8.91241 5.76797 8.80002 6.0313 8.80002 6.30588H15.2C15.2 6.0313 15.0876 5.76797 14.8876 5.57382C14.6876 5.37966 14.4163 5.27059 14.1334 5.27059ZM5.60002 8.37647H18.4C18.6829 8.37647 18.9542 8.48554 19.1543 8.6797C19.3543 8.87385 19.4667 9.13718 19.4667 9.41176V17.6941C19.4667 17.9687 19.3543 18.232 19.1543 18.4262C18.9542 18.6203 18.6829 18.7294 18.4 18.7294H5.60002C5.31713 18.7294 5.04582 18.6203 4.84578 18.4262C4.64574 18.232 4.53336 17.9687 4.53336 17.6941V9.41176C4.53336 9.13718 4.64574 8.87385 4.84578 8.6797C5.04582 8.48554 5.31713 8.37647 5.60002 8.37647Z" fill="#00A1E0"/>
</g>
</svg>
