<svg width="16" height="16" viewBox="0 0 16 16" fill="none" xmlns="http://www.w3.org/2000/svg">
<g clip-path="url(#clip0_187_728)">
<path d="M5.57386 0.525637C3.97522 1.08022 2.59654 2.13285 1.64035 3.52889C0.684163 4.92493 0.200854 6.59082 0.261418 8.28184C0.321982 9.97287 0.923226 11.5999 1.97684 12.924C3.03045 14.248 4.48089 15.1993 6.11511 15.6381C7.44002 15.98 8.82813 15.995 10.1601 15.6819C11.3668 15.4108 12.4823 14.8311 13.3976 13.9994C14.3502 13.1073 15.0417 11.9725 15.3976 10.7169C15.7844 9.35145 15.8532 7.91556 15.5989 6.51939H8.15886V9.60564H12.4676C12.3815 10.0979 12.197 10.5677 11.9251 10.9869C11.6531 11.4062 11.2994 11.7663 10.8851 12.0456C10.359 12.3938 9.7659 12.628 9.14386 12.7331C8.52005 12.8492 7.88018 12.8492 7.25636 12.7331C6.62406 12.6026 6.02592 12.3416 5.50011 11.9669C4.6553 11.3689 4.02096 10.5193 3.68761 9.53939C3.34873 8.54111 3.34873 7.45891 3.68761 6.46064C3.9249 5.76091 4.31716 5.12381 4.83511 4.59689C5.42785 3.98282 6.17828 3.54388 7.00406 3.32823C7.82984 3.11258 8.69906 3.12855 9.51636 3.37439C10.1549 3.57029 10.7387 3.91273 11.2214 4.37439C11.7072 3.89105 12.1922 3.40647 12.6764 2.92064C12.9264 2.65939 13.1989 2.41064 13.4451 2.14314C12.7083 1.45754 11.8434 0.924018 10.9001 0.573137C9.18224 -0.0506254 7.30259 -0.0673884 5.57386 0.525637Z" fill="white"/>
<path d="M5.57397 0.525756C7.30254 -0.0676723 9.1822 -0.0513505 10.9002 0.572006C11.8437 0.92527 12.7082 1.46136 13.444 2.14951C13.194 2.41701 12.9302 2.66701 12.6752 2.92701C12.1902 3.41117 11.7056 3.89367 11.2215 4.37451C10.7388 3.91285 10.155 3.57041 9.51646 3.37451C8.69943 3.12781 7.83024 3.11092 7.00424 3.32568C6.17824 3.54045 5.42735 3.97858 4.83396 4.59201C4.31601 5.11893 3.92375 5.75603 3.68646 6.45576L1.09521 4.44951C2.02273 2.61021 3.62865 1.20329 5.57397 0.525756Z" fill="#E33629"/>
<path d="M0.407438 6.43721C0.546612 5.74692 0.777845 5.07845 1.09494 4.44971L3.68619 6.46096C3.3473 7.45923 3.3473 8.54143 3.68619 9.53971C2.82285 10.2064 1.9591 10.8764 1.09494 11.5497C0.301376 9.9701 0.0593537 8.17033 0.407438 6.43721Z" fill="#F8BD00"/>
<path d="M8.15876 6.51807H15.5988C15.8531 7.91424 15.7843 9.35013 15.3975 10.7156C15.0416 11.9712 14.3501 13.106 13.3975 13.9981C12.5613 13.3456 11.7213 12.6981 10.885 12.0456C11.2996 11.7659 11.6535 11.4054 11.9254 10.9857C12.1973 10.566 12.3817 10.0957 12.4675 9.60307H8.15876C8.15751 8.57557 8.15876 7.54682 8.15876 6.51807Z" fill="#587DBD"/>
<path d="M1.09375 11.5496C1.95792 10.8829 2.82167 10.2129 3.685 9.53955C4.01901 10.5198 4.65426 11.3694 5.5 11.9671C6.02744 12.34 6.62687 12.5989 7.26 12.7271C7.88382 12.8431 8.52368 12.8431 9.1475 12.7271C9.76953 12.6219 10.3627 12.3877 10.8888 12.0396C11.725 12.6921 12.565 13.3396 13.4012 13.9921C12.4861 14.8242 11.3705 15.4044 10.1637 15.6758C8.83176 15.9889 7.44365 15.9739 6.11875 15.6321C5.07088 15.3523 4.09209 14.859 3.24375 14.1833C2.34591 13.4703 1.61254 12.572 1.09375 11.5496Z" fill="#319F43"/>
</g>
<defs>
<clipPath id="clip0_187_728">
<rect width="16" height="16" fill="white" transform="translate(0 -0.000488281)"/>
</clipPath>
</defs>
</svg>
