<svg width="27" height="21" viewBox="0 0 27 21" fill="none" xmlns="http://www.w3.org/2000/svg">
<path d="M16.7387 5.79185C16.4583 5.5257 16.0153 5.53726 15.7491 5.81766C15.483 6.09806 15.4945 6.54112 15.7749 6.80727L16.7387 5.79185ZM19.9625 10.7819C20.2429 11.0481 20.6859 11.0365 20.9521 10.7561C21.2182 10.4757 21.2067 10.0327 20.9263 9.76653L19.9625 10.7819ZM20.9263 10.782C21.2067 10.5159 21.2182 10.0728 20.9521 9.79239C20.6859 9.51199 20.2429 9.50043 19.9625 9.76658L20.9263 10.782ZM15.7749 13.7413C15.4945 14.0074 15.483 14.4505 15.7491 14.7309C16.0153 15.0113 16.4583 15.0228 16.7387 14.7567L15.7749 13.7413ZM20.4446 10.9743C20.8312 10.9743 21.1446 10.6609 21.1446 10.2743C21.1446 9.88769 20.8312 9.57429 20.4446 9.57429V10.9743ZM1 9.57429C0.613401 9.57429 0.3 9.88769 0.3 10.2743C0.3 10.6609 0.613401 10.9743 1 10.9743V9.57429ZM15.7749 6.80727L19.9625 10.7819L20.9263 9.76653L16.7387 5.79185L15.7749 6.80727ZM19.9625 9.76658L15.7749 13.7413L16.7387 14.7567L20.9263 10.782L19.9625 9.76658ZM20.4446 9.57429H1V10.9743H20.4446V9.57429Z" fill="#333333"/>
<path d="M9.33325 14.2489C9.33325 17.1758 11.8206 19.5485 14.8888 19.5485H20.4444C23.5127 19.5485 26 17.1758 26 14.2489V6.29957C26 3.3727 23.5127 1 20.4444 1H14.8888C11.8206 1 9.33325 3.3727 9.33325 6.29957" stroke="#333333" stroke-width="1.4" stroke-linecap="round" stroke-linejoin="round"/>
<path d="M16.7387 5.79185C16.4583 5.5257 16.0153 5.53726 15.7491 5.81766C15.483 6.09806 15.4945 6.54112 15.7749 6.80727L16.7387 5.79185ZM19.9625 10.7819C20.2429 11.0481 20.6859 11.0365 20.9521 10.7561C21.2182 10.4757 21.2067 10.0327 20.9263 9.76653L19.9625 10.7819ZM20.9263 10.782C21.2067 10.5159 21.2182 10.0728 20.9521 9.79239C20.6859 9.51199 20.2429 9.50043 19.9625 9.76658L20.9263 10.782ZM15.7749 13.7413C15.4945 14.0074 15.483 14.4505 15.7491 14.7309C16.0153 15.0113 16.4583 15.0228 16.7387 14.7567L15.7749 13.7413ZM20.4446 10.9743C20.8312 10.9743 21.1446 10.6609 21.1446 10.2743C21.1446 9.88769 20.8312 9.57429 20.4446 9.57429V10.9743ZM1 9.57429C0.613401 9.57429 0.3 9.88769 0.3 10.2743C0.3 10.6609 0.613401 10.9743 1 10.9743V9.57429ZM15.7749 6.80727L19.9625 10.7819L20.9263 9.76653L16.7387 5.79185L15.7749 6.80727ZM19.9625 9.76658L15.7749 13.7413L16.7387 14.7567L20.9263 10.782L19.9625 9.76658ZM20.4446 9.57429H1V10.9743H20.4446V9.57429Z" fill="#333333"/>
<path d="M9.33325 14.2489C9.33325 17.1758 11.8206 19.5485 14.8888 19.5485H20.4444C23.5127 19.5485 26 17.1758 26 14.2489V6.29957C26 3.3727 23.5127 1 20.4444 1H14.8888C11.8206 1 9.33325 3.3727 9.33325 6.29957" stroke="#333333" stroke-width="1.4" stroke-linecap="round" stroke-linejoin="round"/>
</svg>
